@startuml
left to right direction
package "MassageReservation"{
    class "<<Application>>\nMassageReservationService" as MassageReservationService{}

    class "<<Resource>>\nMassageShops" as ResourceMassageShops{
        <<GET>> +getMassageShops():MassageShop
        <<POST>> +createMassageShop():MassageShop
    }

    class "<<Resource>>\nMassageShop" as ResourceMassageShop {
        <<GET>> +getMassageShop(): MassageShop
        <<PUT>> +updateMassageShop(): MassageShop
        <<DELETE>> +deleteMassageShop(): void
    }

    class "<<Representation>>\nMassageShop" as RepresentationMassageShop {
        -name
        -address
        -district
        -province
        -postalcode
        -tel
        -open
        -close
    }

    class "<<Resource>>\nReservations" as ResourceReservations{
        <<GET>> +getReservations(): Reservation
        <<POST>> +addReservation():Reservation
    }

    class "<<Resource>>\nReservation" as ResourceReservation{
        <<GET>> +getReservation():Reservation
        <<PUT>> +updateReservation(): Reservation
        <<DELETE>> +deleteReservation(): void
    }

    class "<<Representation>>\nReservation" as RepresentationReservation {
        -apptDate
        -user
        -massageShop
        -createAt
    }
    class "<<Resource>>\nAuth" as ResourceAuth{
    }
    class "<<Resource>>\nRegister" as ResourceRegister{
        <<POST>> +register():User
    }
    class "<<Resource>>\nLogin" as ResourceLogin{
        <<POST>> +login():User
    }
    class "<<Resource>>\nLogout" as ResourceLogout{
        <<GET>> +logout():void
    }
    class "<<Resource>>\nGetMe" as ResourceGetMe{
        <<GET>> +getme():User
    }
    class "<<Resource>>\nOTP" as ResourceOTP{

    }
    class "<<Representation>>\nSendOTP" as RepresentationSendOTP{
        <<POST>> +sendOTP():void
    }
    class "<<Representation>>\nValidateOTP" as RepresentationValidateOTP{
        <<POST>> +validateOTP():void
    }
    class "<<Representation>>\nOTP" as RepresentationOTP {
        -email
        -otp
        -createdAt
    }

    class "<<Resource>>\nUsers" as ResourceUsers{
        <<POST>> +resetForgotPassword():void
    }

    class "<<Representation>>\nUser" as RepresentationUser {
        -name
        -email
        -tel
        -role
        -password
        -createdAt
    }
    
}

MassageReservationService ..> ResourceMassageShops:"/shops\n<<Path>>"
ResourceMassageShops ..> ResourceMassageShop: "/{shopId}\n<<Path>>"
ResourceMassageShop ..> RepresentationMassageShop: "<<use>>"

MassageReservationService ..> ResourceReservations:"/reservations\n<<Path>>"
ResourceReservations ..> ResourceReservation: "/{reservationId}\n<<Path>>"
ResourceReservation ..> RepresentationReservation: "<<use>>"

MassageReservationService ..> ResourceAuth:"/auth\n<<Path>>"
ResourceAuth ..> ResourceRegister: "/register\n<<Path>>"
ResourceAuth ..> ResourceLogin: "/login\n<<Path>>"
ResourceAuth ..> ResourceLogout: "/logout\n<<Path>>"
ResourceAuth ..> ResourceGetMe: "/me\n<<Path>>"
ResourceAuth ..> ResourceOTP: "/otp\n<<Path>>"
ResourceOTP ..> RepresentationSendOTP: "/send\n<<Path>>"
ResourceOTP ..> RepresentationValidateOTP: "/val\n<<Path>>"

ResourceRegister ..> RepresentationUser: "<<use>>"
ResourceLogin ..> RepresentationUser: "<<use>>"
ResourceLogout ..> RepresentationUser: "<<use>>"
ResourceGetMe ..> RepresentationUser: "<<use>>"
RepresentationValidateOTP ..> RepresentationUser: "<<use>>"
RepresentationSendOTP ..> RepresentationUser: "<<use>>"

RepresentationSendOTP ..> RepresentationOTP: "<<use>>"
RepresentationValidateOTP ..> RepresentationOTP: "<<use>>"

MassageReservationService ..> ResourceUsers: "/users\n<<Path>>"
ResourceUsers ..> RepresentationUser:"<<use>>"
@enduml